<?xml version="1.0" encoding="iso-8859-1"?>
<!-- Uploaded to: SVG Repo, www.svgrepo.com, Generator: SVG Repo Mixer Tools -->
<!DOCTYPE svg PUBLIC "-//W3C//DTD SVG 1.1//EN" "http://www.w3.org/Graphics/SVG/1.1/DTD/svg11.dtd">
<svg height="800px" width="800px" version="1.1" id="Capa_1" xmlns="http://www.w3.org/2000/svg" xmlns:xlink="http://www.w3.org/1999/xlink" 
	 viewBox="0 0 380.59 380.59" xml:space="preserve">
<g>
	<path style="fill:#020202;" d="M361.71,267.342c-10.425,0-18.87,8.458-18.87,18.871v56.624h-56.624
		c-10.432,0-18.877,8.458-18.877,18.883c0,10.413,8.445,18.871,18.877,18.871h75.494c10.432,0,18.877-8.458,18.877-18.871v-75.507
		C380.587,275.801,372.142,267.342,361.71,267.342z"/>
	<path style="fill:#020202;" d="M94.373,342.837H37.749v-56.624c0-10.412-8.445-18.871-18.87-18.871
		c-10.431,0-18.876,8.458-18.876,18.871v75.507c0,10.413,8.445,18.871,18.876,18.871h75.494c10.432,0,18.877-8.458,18.877-18.871
		C113.25,351.295,104.805,342.837,94.373,342.837z"/>
	<path style="fill:#020202;" d="M18.879,113.248c10.425,0,18.87-8.458,18.87-18.87V37.753h56.624
		c10.432,0,18.877-8.458,18.877-18.883C113.25,8.458,104.805,0,94.373,0H18.879C8.449,0,0.003,8.458,0.003,18.87v75.507
		C0.003,104.79,8.449,113.248,18.879,113.248z"/>
	<path style="fill:#020202;" d="M361.71,0h-75.494c-10.432,0-18.877,8.458-18.877,18.87c0,10.425,8.445,18.883,18.877,18.883h56.624
		v56.624c0,10.412,8.445,18.87,18.87,18.87c10.432,0,18.877-8.458,18.877-18.87V18.87C380.587,8.458,372.142,0,361.71,0z"/>
	<path style="fill:#020202;" d="M307.467,190.296c0-64.593-52.563-117.158-117.169-117.158
		c-64.604,0-117.169,52.564-117.169,117.158c0,64.604,52.564,117.182,117.169,117.182
		C254.904,307.477,307.467,254.9,307.467,190.296z M190.298,282.305c-50.734,0-92.003-41.274-92.003-92.009
		c0-50.723,41.268-91.985,92.003-91.985s92.002,41.262,92.002,91.985C282.3,241.03,241.033,282.305,190.298,282.305z"/>
	<path style="fill:#020202;" d="M190.298,143.658c-25.762,0-46.643,20.874-46.643,46.649c0,25.762,20.881,46.65,46.643,46.65
		s46.643-20.889,46.643-46.65C236.942,164.533,216.06,143.658,190.298,143.658z"/>
</g>
</svg>